<?xml version="1.0" encoding="UTF-8"?>
<svg width="13px" height="22px" viewBox="0 0 13 22" version="1.1" xmlns="http://www.w3.org/2000/svg" xmlns:xlink="http://www.w3.org/1999/xlink">
    <!-- Generator: Sketch 50.2 (55047) - http://www.bohemiancoding.com/sketch -->
    <title>ic_phone_iphone</title>
    <desc>Created with Sketch.</desc>
    <defs></defs>
    <g id="Page-1" stroke="none" stroke-width="1" fill="none" fill-rule="evenodd">
        <g id="ic_phone_iphone" transform="translate(-5.000000, -1.000000)">
            <g id="Icon-24px">
                <path d="M15.5,1 L7.5,1 C6.12,1 5,2.12 5,3.5 L5,20.5 C5,21.88 6.12,23 7.5,23 L15.5,23 C16.88,23 18,21.88 18,20.5 L18,3.5 C18,2.12 16.88,1 15.5,1 L15.5,1 Z M11.5,22 C10.67,22 10,21.33 10,20.5 C10,19.67 10.67,19 11.5,19 C12.33,19 13,19.67 13,20.5 C13,21.33 12.33,22 11.5,22 L11.5,22 Z M16,18 L7,18 L7,4 L16,4 L16,18 L16,18 Z" id="Shape" fill="#000000"></path>
                <polygon id="Shape" points="0 0 24 0 24 24 0 24"></polygon>
            </g>
        </g>
    </g>
</svg>