<?xml version="1.0" encoding="UTF-8"?>
<svg width="22px" height="18px" viewBox="0 0 22 18" version="1.1" xmlns="http://www.w3.org/2000/svg" xmlns:xlink="http://www.w3.org/1999/xlink">
    <!-- Generator: Sketch 50.2 (55047) - http://www.bohemiancoding.com/sketch -->
    <title>ic_tv</title>
    <desc>Created with Sketch.</desc>
    <defs></defs>
    <g id="Page-1" stroke="none" stroke-width="1" fill="none" fill-rule="evenodd">
        <g id="ic_tv" transform="translate(-1.000000, -3.000000)">
            <g id="Icon-24px">
                <polygon id="Shape" points="0 0 24 0 24 24 0 24"></polygon>
                <path d="M21,3 L3,3 C1.9,3 1,3.9 1,5 L1,17 C1,18.1 1.9,19 3,19 L8,19 L8,21 L16,21 L16,19 L21,19 C22.1,19 22.99,18.1 22.99,17 L23,5 C23,3.9 22.1,3 21,3 L21,3 Z M21,17 L3,17 L3,5 L21,5 L21,17 L21,17 Z" id="Shape" fill="#000000"></path>
            </g>
        </g>
    </g>
</svg>