<?xml version="1.0" encoding="UTF-8"?>
<svg width="16px" height="24px" viewBox="0 0 16 24" version="1.1" xmlns="http://www.w3.org/2000/svg" xmlns:xlink="http://www.w3.org/1999/xlink">
    <!-- Generator: Sketch 50.2 (55047) - http://www.bohemiancoding.com/sketch -->
    <title>ic_watch</title>
    <desc>Created with Sketch.</desc>
    <defs></defs>
    <g id="Page-1" stroke="none" stroke-width="1" fill="none" fill-rule="evenodd">
        <g id="ic_watch" transform="translate(-4.000000, 0.000000)">
            <g id="Icon-24px">
                <polygon id="Shape" opacity="0.1" points="0 0 24 0 24 24 0 24"></polygon>
                <path d="M20,12 C20,9.46 18.81,7.19 16.96,5.73 L16,0 L8,0 L7.05,5.73 C5.19,7.19 4,9.45 4,12 C4,14.55 5.19,16.81 7.05,18.27 L8,24 L16,24 L16.96,18.27 C18.81,16.81 20,14.54 20,12 L20,12 Z M6,12 C6,8.69 8.69,6 12,6 C15.31,6 18,8.69 18,12 C18,15.31 15.31,18 12,18 C8.69,18 6,15.31 6,12 L6,12 Z" id="Shape" fill="#000000"></path>
            </g>
        </g>
    </g>
</svg>